<svg version="1.1" id="Layer_1" xmlns="http://www.w3.org/2000/svg" xmlns:xlink="http://www.w3.org/1999/xlink" x="0px" y="0px"
	 width="100%" viewBox="0 0 500 500" enable-background="new 0 0 500 500" xml:space="preserve">
<path fill="#FFFFFF" opacity="1.000000" stroke="none" 
	d="
M337.000000,501.000000 
	C224.666687,501.000000 112.833389,501.000000 1.000060,501.000000 
	C1.000040,334.333405 1.000040,167.666794 1.000020,1.000149 
	C167.666565,1.000100 334.333130,1.000100 500.999756,1.000050 
	C500.999847,167.666519 500.999847,334.333038 500.999939,500.999786 
	C446.500000,501.000000 392.000000,501.000000 337.000000,501.000000 
M332.095856,409.529907 
	C332.095764,417.363312 332.285004,425.204651 331.957245,433.024323 
	C331.879120,434.888153 330.519348,437.297668 328.988525,438.400543 
	C321.057709,444.114349 317.773071,452.908295 320.773376,461.604340 
	C323.510712,469.538239 331.260986,475.051147 339.454468,474.892578 
	C347.486053,474.737152 355.895538,469.123291 357.535370,461.558441 
	C359.624786,451.919434 358.657990,445.072571 349.953918,439.128967 
	C346.889526,437.036377 345.963531,435.013245 346.023010,431.509613 
	C346.204010,420.847931 346.337524,410.165771 345.880035,399.517792 
	C345.272156,385.369690 332.992645,373.602936 318.838013,372.967285 
	C316.261108,372.851532 313.684082,372.738556 310.378143,372.591980 
	C319.724487,353.420868 323.496460,333.708527 323.106506,312.858948 
	C327.149933,312.858948 330.626770,312.934692 334.099426,312.846344 
	C353.021240,312.365051 366.664032,298.744843 367.109741,279.881256 
	C367.208160,275.716858 367.409241,271.525818 367.068146,267.387848 
	C366.683502,262.721436 367.856110,259.631165 372.037201,256.680420 
	C380.631134,250.615341 381.679718,237.742050 375.040802,229.504898 
	C368.531647,221.428757 355.923676,220.340195 347.612427,226.447678 
	C338.706238,232.992386 337.640564,250.795853 348.838593,258.051666 
	C350.372894,259.045837 352.001221,261.189514 352.094025,262.882782 
	C352.439941,269.193665 352.381836,275.549469 352.066620,281.868042 
	C351.666809,289.883545 344.725677,297.160339 336.773743,297.825226 
	C331.995178,298.224792 327.155914,297.898651 322.210449,297.898651 
	C315.786316,265.299316 303.996216,236.650452 269.992981,223.380188 
	C271.588867,220.630722 273.023804,218.010178 274.595428,215.474289 
	C287.569733,194.539352 304.933807,178.069519 325.746552,165.065826 
	C330.167145,162.303864 331.171509,158.545624 328.944611,154.994095 
	C326.623688,151.292587 322.333252,150.460190 318.105835,153.461761 
	C309.834686,159.334488 301.608948,165.295197 293.673920,171.608536 
	C288.809906,175.478485 284.520752,180.070953 279.579102,184.709061 
	C278.944427,182.504913 278.484558,180.951706 278.049744,179.391510 
	C264.656586,131.333710 237.582031,92.980232 196.572495,64.508514 
	C170.603760,46.479202 142.026688,34.001183 111.840073,25.086409 
	C109.059570,24.265265 105.058258,24.535107 102.710922,26.018549 
	C99.369919,28.129961 100.293190,32.203823 101.556427,35.609539 
	C106.469780,48.856102 110.770271,62.378605 116.501801,75.263306 
	C129.870651,105.317039 148.799942,131.581818 173.459106,153.423279 
	C198.947632,175.999298 228.080612,192.457047 260.354095,203.343124 
	C261.675293,203.788803 262.902832,204.512222 264.205322,205.120850 
	C261.259277,210.388092 258.754913,215.281403 255.805252,219.889709 
	C254.903137,221.299149 252.891022,222.233017 251.193192,222.855392 
	C245.466843,224.954529 239.266846,226.086838 233.946960,228.907288 
	C219.194351,236.728729 209.802963,249.654312 203.179825,264.538544 
	C199.565811,272.660309 197.113297,281.298920 194.033493,289.996674 
	C189.779800,289.996674 185.291046,290.037750 180.803284,289.988525 
	C169.875153,289.868683 162.232544,282.402802 162.056122,271.531616 
	C161.931732,263.867004 161.837036,256.190765 162.160828,248.538010 
	C162.239853,246.670151 163.559616,244.232941 165.084671,243.153519 
	C172.496262,237.907776 175.845291,229.287766 173.270142,220.833939 
	C170.683319,212.341751 163.515854,207.018555 154.641541,206.998718 
	C146.114502,206.979660 138.405640,212.524719 136.089340,220.343506 
	C133.422516,229.345520 136.565567,237.761353 144.190933,243.160736 
	C145.620880,244.173264 146.906540,246.417191 146.976532,248.144806 
	C147.279953,255.632492 147.027634,263.140472 147.124435,270.639160 
	C147.383774,290.728363 161.524231,304.796814 181.586273,304.996124 
	C185.202301,305.032043 188.819000,305.001221 193.033112,305.001221 
	C191.826126,325.785126 193.301819,345.699341 201.747391,365.336975 
	C197.915268,365.336975 195.117889,365.292633 192.322266,365.344086 
	C172.222366,365.713776 160.677551,375.982178 158.696411,395.905853 
	C157.974075,403.170258 158.266403,410.555634 158.425079,417.878693 
	C158.500000,421.335815 157.683060,423.432465 154.514297,425.520111 
	C144.885223,431.863983 143.140915,445.512024 150.362244,454.069031 
	C157.862289,462.956329 170.409897,463.801208 178.747025,455.980286 
	C187.213867,448.037689 187.752075,434.290833 178.445023,427.426880 
	C172.762146,423.235718 172.465317,418.731506 172.660233,413.087921 
	C172.763718,410.091522 172.875809,407.073425 172.646362,404.091095 
	C171.216629,385.507477 178.307037,378.867981 197.239990,379.402435 
	C205.336487,379.631012 210.424438,381.534119 215.668655,388.295929 
	C236.837143,415.590302 270.657745,417.766785 292.658508,395.524170 
	C299.639526,388.466431 306.473572,385.570404 315.752869,386.864929 
	C316.244781,386.933533 316.752014,386.885071 317.251221,386.909332 
	C325.565582,387.313385 331.607117,393.265961 332.029968,401.545227 
	C332.148834,403.873047 332.079163,406.210510 332.095856,409.529907 
M356.024933,142.556808 
	C350.693939,132.207153 342.539734,124.893509 331.807678,120.563713 
	C330.399170,119.995461 328.381256,120.937721 326.645599,121.180389 
	C327.394196,122.703415 327.757629,125.084091 328.949768,125.619476 
	C344.285309,132.506775 352.831726,144.153427 354.838287,160.845367 
	C355.016418,162.327179 357.265411,163.560059 358.552612,164.908554 
	C359.280457,163.126205 360.884033,161.174255 360.577637,159.592194 
	C359.509705,154.077881 357.780762,148.691574 356.024933,142.556808 
M341.491943,148.103088 
	C337.899567,142.141479 332.506439,138.395599 326.089294,136.190445 
	C324.842865,135.762131 323.038086,136.958603 321.490875,137.405609 
	C322.209595,138.847748 322.589050,141.164642 323.699951,141.595474 
	C333.772430,145.501663 338.812103,152.897720 340.084442,163.400543 
	C340.236755,164.657745 342.155701,165.700928 343.255798,166.843323 
	C344.162933,165.529984 346.030792,164.022705 345.811584,162.936752 
	C344.840759,158.127838 343.270386,153.439972 341.491943,148.103088 
z"/>
<path fill="#A0A75A" opacity="1.000000" stroke="none" 
	d="
M332.095917,409.036743 
	C332.079163,406.210510 332.148834,403.873047 332.029968,401.545227 
	C331.607117,393.265961 325.565582,387.313385 317.251221,386.909332 
	C316.752014,386.885071 316.244781,386.933533 315.752869,386.864929 
	C306.473572,385.570404 299.639526,388.466431 292.658508,395.524170 
	C270.657745,417.766785 236.837143,415.590302 215.668655,388.295929 
	C210.424438,381.534119 205.336487,379.631012 197.239990,379.402435 
	C178.307037,378.867981 171.216629,385.507477 172.646362,404.091095 
	C172.875809,407.073425 172.763718,410.091522 172.660233,413.087921 
	C172.465317,418.731506 172.762146,423.235718 178.445023,427.426880 
	C187.752075,434.290833 187.213867,448.037689 178.747025,455.980286 
	C170.409897,463.801208 157.862289,462.956329 150.362244,454.069031 
	C143.140915,445.512024 144.885223,431.863983 154.514297,425.520111 
	C157.683060,423.432465 158.500000,421.335815 158.425079,417.878693 
	C158.266403,410.555634 157.974075,403.170258 158.696411,395.905853 
	C160.677551,375.982178 172.222366,365.713776 192.322266,365.344086 
	C195.117889,365.292633 197.915268,365.336975 201.747391,365.336975 
	C193.301819,345.699341 191.826126,325.785126 193.033112,305.001221 
	C188.819000,305.001221 185.202301,305.032043 181.586273,304.996124 
	C161.524231,304.796814 147.383774,290.728363 147.124435,270.639160 
	C147.027634,263.140472 147.279953,255.632492 146.976532,248.144806 
	C146.906540,246.417191 145.620880,244.173264 144.190933,243.160736 
	C136.565567,237.761353 133.422516,229.345520 136.089340,220.343506 
	C138.405640,212.524719 146.114502,206.979660 154.641541,206.998718 
	C163.515854,207.018555 170.683319,212.341751 173.270142,220.833939 
	C175.845291,229.287766 172.496262,237.907776 165.084671,243.153519 
	C163.559616,244.232941 162.239853,246.670151 162.160828,248.538010 
	C161.837036,256.190765 161.931732,263.867004 162.056122,271.531616 
	C162.232544,282.402802 169.875153,289.868683 180.803284,289.988525 
	C185.291046,290.037750 189.779800,289.996674 194.033493,289.996674 
	C197.113297,281.298920 199.565811,272.660309 203.179825,264.538544 
	C209.802963,249.654312 219.194351,236.728729 233.946960,228.907288 
	C239.266846,226.086838 245.466843,224.954529 251.193192,222.855392 
	C252.891022,222.233017 254.903137,221.299149 255.805252,219.889709 
	C258.754913,215.281403 261.259277,210.388092 264.205322,205.120850 
	C262.902832,204.512222 261.675293,203.788803 260.354095,203.343124 
	C228.080612,192.457047 198.947632,175.999298 173.459106,153.423279 
	C148.799942,131.581818 129.870651,105.317039 116.501801,75.263306 
	C110.770271,62.378605 106.469780,48.856102 101.556427,35.609539 
	C100.293190,32.203823 99.369919,28.129961 102.710922,26.018549 
	C105.058258,24.535107 109.059570,24.265265 111.840073,25.086409 
	C142.026688,34.001183 170.603760,46.479202 196.572495,64.508514 
	C237.582031,92.980232 264.656586,131.333710 278.049744,179.391510 
	C278.484558,180.951706 278.944427,182.504913 279.579102,184.709061 
	C284.520752,180.070953 288.809906,175.478485 293.673920,171.608536 
	C301.608948,165.295197 309.834686,159.334488 318.105835,153.461761 
	C322.333252,150.460190 326.623688,151.292587 328.944611,154.994095 
	C331.171509,158.545624 330.167145,162.303864 325.746552,165.065826 
	C304.933807,178.069519 287.569733,194.539352 274.595428,215.474289 
	C273.023804,218.010178 271.588867,220.630722 269.992981,223.380188 
	C303.996216,236.650452 315.786316,265.299316 322.210449,297.898651 
	C327.155914,297.898651 331.995178,298.224792 336.773743,297.825226 
	C344.725677,297.160339 351.666809,289.883545 352.066620,281.868042 
	C352.381836,275.549469 352.439941,269.193665 352.094025,262.882782 
	C352.001221,261.189514 350.372894,259.045837 348.838593,258.051666 
	C337.640564,250.795853 338.706238,232.992386 347.612427,226.447678 
	C355.923676,220.340195 368.531647,221.428757 375.040802,229.504898 
	C381.679718,237.742050 380.631134,250.615341 372.037201,256.680420 
	C367.856110,259.631165 366.683502,262.721436 367.068146,267.387848 
	C367.409241,271.525818 367.208160,275.716858 367.109741,279.881256 
	C366.664032,298.744843 353.021240,312.365051 334.099426,312.846344 
	C330.626770,312.934692 327.149933,312.858948 323.106506,312.858948 
	C323.496460,333.708527 319.724487,353.420868 310.378143,372.591980 
	C313.684082,372.738556 316.261108,372.851532 318.838013,372.967285 
	C332.992645,373.602936 345.272156,385.369690 345.880035,399.517792 
	C346.337524,410.165771 346.204010,420.847931 346.023010,431.509613 
	C345.963531,435.013245 346.889526,437.036377 349.953918,439.128967 
	C358.657990,445.072571 359.624786,451.919434 357.535370,461.558441 
	C355.895538,469.123291 347.486053,474.737152 339.454468,474.892578 
	C331.260986,475.051147 323.510712,469.538239 320.773376,461.604340 
	C317.773071,452.908295 321.057709,444.114349 328.988525,438.400543 
	C330.519348,437.297668 331.879120,434.888153 331.957245,433.024323 
	C332.285004,425.204651 332.095764,417.363312 332.095917,409.036743 
z"/>
<path fill="#A3AA60" opacity="1.000000" stroke="none" 
	d="
M356.164001,142.906708 
	C357.780762,148.691574 359.509705,154.077881 360.577637,159.592194 
	C360.884033,161.174255 359.280457,163.126205 358.552612,164.908569 
	C357.265411,163.560059 355.016418,162.327179 354.838287,160.845367 
	C352.831726,144.153427 344.285309,132.506775 328.949768,125.619476 
	C327.757629,125.084091 327.394196,122.703415 326.645599,121.180382 
	C328.381256,120.937721 330.399170,119.995461 331.807678,120.563713 
	C342.539734,124.893509 350.693939,132.207153 356.164001,142.906708 
z"/>
<path fill="#A4AA61" opacity="1.000000" stroke="none" 
	d="
M341.704468,148.405685 
	C343.270386,153.439972 344.840759,158.127838 345.811584,162.936752 
	C346.030792,164.022705 344.162933,165.529984 343.255798,166.843323 
	C342.155701,165.700928 340.236755,164.657745 340.084442,163.400543 
	C338.812103,152.897720 333.772430,145.501663 323.699951,141.595474 
	C322.589050,141.164642 322.209595,138.847748 321.490875,137.405609 
	C323.038086,136.958603 324.842865,135.762131 326.089294,136.190445 
	C332.506439,138.395599 337.899567,142.141479 341.704468,148.405685 
z"/>
</svg>